<?xml version="1.0" encoding="UTF-8"?>
<svg width="1231px" height="147px" viewBox="0 0 1231 147" version="1.1" xmlns="http://www.w3.org/2000/svg" xmlns:xlink="http://www.w3.org/1999/xlink">
    <title>TanujAPaunikar</title>
    <g id="Page-1" stroke="none" stroke-width="1" fill="none" fill-rule="evenodd">
        <path d="M49.9283698,143.284942 L49.9283698,4.77332194 L81.2458681,4.77332194 L81.2458681,0.99 L0.535,0.99 L0.535,4.77332194 L31.8524983,4.77332194 L31.8524983,143.284942 L49.9283698,143.284942 Z M91.5449111,143.284942 L102.474508,94.7323103 L135.893852,94.7323103 L146.613264,143.284942 L165.319689,143.284942 L133.792006,0.99 L115.085581,0.99 L117.187427,10.4483049 L87.1310355,143.284942 L91.5449111,143.284942 Z M135.053113,90.9489884 L103.315246,90.9489884 L119.289272,19.9066097 L135.053113,90.9489884 Z M188.019621,143.284942 L188.019621,23.4797471 L234.680591,143.284942 L253.387016,143.284942 L253.387016,0.99 L249.183325,0.99 L249.183325,132.145161 L197.68811,0.99 L178.561316,0.99 L183.81593,14.2316268 L183.81593,143.284942 L188.019621,143.284942 Z M318.544228,146.017341 C337.881206,146.017341 350.702464,135.297929 350.702464,102.719323 L350.702464,0.99 L346.498773,0.99 L346.498773,103.139692 C346.498773,136.559036 333.257146,140.972912 321.486811,140.972912 C305.302601,140.972912 298.576695,129.833131 298.576695,103.770246 L298.576695,0.99 L280.500824,0.99 L280.500824,99.1461859 C280.500824,134.036822 292.691528,146.017341 318.544228,146.017341 Z M413.337461,116.801688 L413.337461,0.99 L395.261589,0.99 L395.261589,124.998886 C395.261589,144.12568 378.446825,143.495126 367.307044,136.138667 L365.205198,139.081251 C383.28107,152.112693 413.337461,145.596972 413.337461,116.801688 Z M434.776285,143.284942 L445.705882,94.7323103 L479.125226,94.7323103 L489.844638,143.284942 L508.551063,143.284942 L477.02338,0.99 L458.316955,0.99 L460.4188,10.4483049 L430.362409,143.284942 L434.776285,143.284942 Z M478.284487,90.9489884 L446.54662,90.9489884 L462.520646,19.9066097 L478.284487,90.9489884 Z M588.421193,143.284942 L588.421193,84.2230827 L594.936914,84.2230827 C620.579429,84.2230827 636.133086,69.7203486 636.133086,41.345434 C636.133086,14.2316268 623.101644,0.99 598.299867,0.99 L570.345321,0.99 L570.345321,143.284942 L588.421193,143.284942 Z M594.726729,80.4397608 L588.421193,80.4397608 L588.421193,4.77332194 L594.936914,4.77332194 C608.809094,4.77332194 616.165554,15.9131032 616.165554,41.9759877 C616.165554,68.0388722 607.968356,80.4397608 594.726729,80.4397608 Z M650.215451,143.284942 L661.145048,94.7323103 L694.564392,94.7323103 L705.283804,143.284942 L723.990229,143.284942 L692.462546,0.99 L673.756121,0.99 L675.857967,10.4483049 L645.801576,143.284942 L650.215451,143.284942 Z M693.723653,90.9489884 L661.985786,90.9489884 L677.959812,19.9066097 L693.723653,90.9489884 Z M779.89932,146.017341 C799.236299,146.017341 812.057556,135.297929 812.057556,102.719323 L812.057556,0.99 L807.853865,0.99 L807.853865,103.139692 C807.853865,136.559036 794.612239,140.972912 782.841904,140.972912 C766.657693,140.972912 759.931787,129.833131 759.931787,103.770246 L759.931787,0.99 L741.855916,0.99 L741.855916,99.1461859 C741.855916,134.036822 754.04662,146.017341 779.89932,146.017341 Z M842.954686,143.284942 L842.954686,23.4797471 L889.615656,143.284942 L908.322081,143.284942 L908.322081,0.99 L904.11839,0.99 L904.11839,132.145161 L852.623175,0.99 L833.496381,0.99 L838.750995,14.2316268 L838.750995,143.284942 L842.954686,143.284942 Z M953.721945,143.284942 L953.721945,0.99 L935.646073,0.99 L935.646073,143.284942 L953.721945,143.284942 Z M999.121808,143.284942 L999.121808,0.99 L981.045936,0.99 L981.045936,143.284942 L999.121808,143.284942 Z M1057.34293,143.284942 L1017.40786,57.31946 L1050.40684,0.99 L1045.99296,0.99 L1004.37642,71.8221941 L1036.32447,143.284942 L1057.34293,143.284942 Z M1065.54013,143.284942 L1076.46972,94.7323103 L1109.88907,94.7323103 L1120.60848,143.284942 L1139.3149,143.284942 L1107.78722,0.99 L1089.0808,0.99 L1091.18264,10.4483049 L1061.12625,143.284942 L1065.54013,143.284942 Z M1109.04833,90.9489884 L1077.31046,90.9489884 L1093.28449,19.9066097 L1109.04833,90.9489884 Z M1175.46665,143.284942 L1175.46665,72.6629323 L1181.77218,72.6629323 C1190.59994,72.6629323 1196.69529,79.8092071 1200.68879,95.7832331 L1211.19802,143.284942 L1230.535,143.284942 L1218.76467,97.6748941 C1214.56097,81.280499 1205.10267,73.293486 1191.86104,70.9814559 C1209.51654,68.8796104 1223.80909,57.1092755 1223.80909,34.6195284 C1223.80909,16.1232878 1213.08968,0.99 1187.44717,0.99 L1157.39078,0.99 L1157.39078,143.284942 L1175.46665,143.284942 Z M1183.87403,68.8796104 L1175.46665,68.8796104 L1175.46665,4.77332194 L1184.08421,4.77332194 C1200.26842,4.77332194 1204.26193,18.2251333 1204.26193,36.0908202 C1204.26193,59.0009364 1196.06473,68.8796104 1183.87403,68.8796104 Z" id="TanujAPaunikar" fill="#000000" fill-rule="nonzero"></path>
    </g>
</svg>