<?xml version="1.0" encoding="UTF-8"?>
<svg width="1230px" height="146px" viewBox="0 0 1230 146" version="1.1" xmlns="http://www.w3.org/2000/svg" xmlns:xlink="http://www.w3.org/1999/xlink">
    <title>TanujAPaunikar</title>
    <g id="other-way-" stroke="none" stroke-width="1" fill="none" fill-rule="evenodd">
        <path d="M49.945,143 L49.945,4.61 L81.235,4.61 L81.235,0.83 L0.595,0.83 L0.595,4.61 L31.885,4.61 L31.885,143 L49.945,143 Z M91.525,143 L102.445,94.49 L135.835,94.49 L146.545,143 L165.235,143 L133.735,0.83 L115.045,0.83 L117.145,10.28 L87.115,143 L91.525,143 Z M134.995,90.71 L103.285,90.71 L119.245,19.73 L134.995,90.71 Z M187.915,143 L187.915,23.3 L234.535,143 L253.225,143 L253.225,0.83 L249.025,0.83 L249.025,131.87 L197.575,0.83 L178.465,0.83 L183.715,14.06 L183.715,143 L187.915,143 Z M318.325,145.73 C337.645,145.73 350.455,135.02 350.455,102.47 L350.455,0.83 L346.255,0.83 L346.255,102.89 C346.255,136.28 333.025,140.69 321.265,140.69 C305.095,140.69 298.375,129.56 298.375,103.52 L298.375,0.83 L280.315,0.83 L280.315,98.9 C280.315,133.76 292.495,145.73 318.325,145.73 Z M413.035,116.54 L413.035,0.83 L394.975,0.83 L394.975,124.73 C394.975,143.84 378.175,143.21 367.045,135.86 L364.945,138.8 C383.005,151.82 413.035,145.31 413.035,116.54 Z M434.455,143 L445.375,94.49 L478.765,94.49 L489.475,143 L508.165,143 L476.665,0.83 L457.975,0.83 L460.075,10.28 L430.045,143 L434.455,143 Z M477.925,90.71 L446.215,90.71 L462.175,19.73 L477.925,90.71 Z M587.965,143 L587.965,83.99 L594.475,83.99 C620.095,83.99 635.635,69.5 635.635,41.15 C635.635,14.06 622.615,0.83 597.835,0.83 L569.905,0.83 L569.905,143 L587.965,143 Z M594.265,80.21 L587.965,80.21 L587.965,4.61 L594.475,4.61 C608.335,4.61 615.685,15.74 615.685,41.78 C615.685,67.82 607.495,80.21 594.265,80.21 Z M649.705,143 L660.625,94.49 L694.015,94.49 L704.725,143 L723.415,143 L691.915,0.83 L673.225,0.83 L675.325,10.28 L645.295,143 L649.705,143 Z M693.175,90.71 L661.465,90.71 L677.425,19.73 L693.175,90.71 Z M779.275,145.73 C798.595,145.73 811.405,135.02 811.405,102.47 L811.405,0.83 L807.205,0.83 L807.205,102.89 C807.205,136.28 793.975,140.69 782.215,140.69 C766.045,140.69 759.325,129.56 759.325,103.52 L759.325,0.83 L741.265,0.83 L741.265,98.9 C741.265,133.76 753.445,145.73 779.275,145.73 Z M842.275,143 L842.275,23.3 L888.895,143 L907.585,143 L907.585,0.83 L903.385,0.83 L903.385,131.87 L851.935,0.83 L832.825,0.83 L838.075,14.06 L838.075,143 L842.275,143 Z M952.945,143 L952.945,0.83 L934.885,0.83 L934.885,143 L952.945,143 Z M998.305,143 L998.305,0.83 L980.245,0.83 L980.245,143 L998.305,143 Z M1056.475,143 L1016.575,57.11 L1049.545,0.83 L1045.135,0.83 L1003.555,71.6 L1035.475,143 L1056.475,143 Z M1064.665,143 L1075.585,94.49 L1108.975,94.49 L1119.685,143 L1138.375,143 L1106.875,0.83 L1088.185,0.83 L1090.285,10.28 L1060.255,143 L1064.665,143 Z M1108.135,90.71 L1076.425,90.71 L1092.385,19.73 L1108.135,90.71 Z M1174.495,143 L1174.495,72.44 L1180.795,72.44 C1189.615,72.44 1195.705,79.58 1199.695,95.54 L1210.195,143 L1229.515,143 L1217.755,97.43 C1213.555,81.05 1204.105,73.07 1190.875,70.76 C1208.515,68.66 1222.795,56.9 1222.795,34.43 C1222.795,15.95 1212.085,0.83 1186.465,0.83 L1156.435,0.83 L1156.435,143 L1174.495,143 Z M1182.895,68.66 L1174.495,68.66 L1174.495,4.61 L1183.105,4.61 C1199.275,4.61 1203.265,18.05 1203.265,35.9 C1203.265,58.79 1195.075,68.66 1182.895,68.66 Z" id="TanujAPaunikar" fill="#F9F9F9" fill-rule="nonzero"></path>
    </g>
</svg>